<svg width="70" height="70" viewBox="0 0 70 70" fill="none" xmlns="http://www.w3.org/2000/svg">
<path d="M16.7588 68.5L1.86992 1.5H53.2412L68.1301 68.5H16.7588Z" stroke="white" stroke-width="3"/>
<path d="M42.7025 26.2426C43.1279 25.8173 43.8176 25.8173 44.243 26.2426C44.6683 26.668 44.6683 27.3577 44.243 27.7831L27.2981 44.7279C26.8727 45.1533 26.1831 45.1533 25.7577 44.7279C25.3323 44.3025 25.3323 43.6129 25.7577 43.1875L42.7025 26.2426Z" fill="white"/>
<path d="M44.2428 43.1875C44.6682 43.6129 44.6682 44.3025 44.2428 44.7279C43.8174 45.1533 43.1277 45.1533 42.7024 44.7279L25.7575 27.7831C25.3321 27.3577 25.3321 26.668 25.7575 26.2426C26.1829 25.8173 26.8726 25.8173 27.298 26.2426L44.2428 43.1875Z" fill="white"/>
</svg>
